<?xml version="1.0" encoding="UTF-8" standalone="no"?>
<!-- Created with Inkscape (http://www.inkscape.org/) -->

<svg
   width="484.5"
   height="102.75"
   viewBox="0 0 484.5 102.75"
   version="1.1"
   id="svg1"
   xmlns="http://www.w3.org/2000/svg"
   xmlns:svg="http://www.w3.org/2000/svg">
  <defs
     id="defs1" />
  <g
     id="layer1"
     transform="translate(4.1884389,4.1994111)">
    <g
       id="g1">
      <path
         d="m -12.778606,-6.5215379 c 0.924436,-3.1192818 3.6093639,-5.5804641 7.0122184,-6.4278271 v -3.572182 c -5.5023184,0.972364 -9.8482824,4.956218 -10.9091004,10.0000091 z"
         fill-rule="evenodd"
         id="path1"
         style="stroke-width:0.264583" />
      <path
         d="m -12.778606,-1.0670019 h -3.896882 c 1.060818,5.0438455 5.406782,9.0277274 10.9091004,10 V 5.3609072 C -9.1692421,4.5136163 -11.85427,2.0522981 -12.778606,-1.0670019 Z"
         fill-rule="evenodd"
         id="path2"
         style="stroke-width:0.264583" />
      <path
         d="m 5.2069671,-1.0670019 c -0.8474545,3.1193 -3.3086364,5.5804092 -6.4279091,6.4279091 v 3.5720909 c 5.0437909,-0.9722726 9.0276365,-4.9561545 10.0000002,-10 z"
         fill-rule="evenodd"
         id="path3"
         style="stroke-width:0.264583" />
      <path
         d="M 5.2069671,-6.5215379 H 8.7790582 C 7.8066945,-11.565329 3.8228489,-15.549183 -1.220942,-16.521547 v 3.572182 c 3.1192727,0.847272 5.5805545,3.3085453 6.4279091,6.4278271 z"
         fill-rule="evenodd"
         id="path4"
         style="stroke-width:0.264583" />
      <path
         d="m -3.9482046,-6.5814017 c -1.5392922,0 -2.7871376,1.2478455 -2.7871376,2.7871376 0,1.5392896 1.2478454,2.7871351 2.7871376,2.7871351 1.5392898,0 2.7871352,-1.2478455 2.7871352,-2.7871351 0,-1.5392921 -1.2478454,-2.7871376 -2.7871352,-2.7871376 z M -4.9247239,-23.794274 h 1.9530181 v 15.2866633 c 1.872,0.3871819 3.34964561,1.8648273 3.73682744,3.7366182 H 16.051786 v 1.953027 H 0.76522153 C 0.3778397,-0.94576542 -1.0997058,0.53187994 -2.9717058,0.91906183 V 16.205725 H -4.9247239 V 0.91916195 c -1.872,-0.38738191 -3.3496456,-1.86492737 -3.7368275,-3.73692735 H -23.948214 v -1.953018 h 15.2866626 c 0.387282,-1.872 1.8648275,-3.3496454 3.7368275,-3.7368273 z"
         fill-rule="evenodd"
         id="path5"
         style="stroke-width:0.264583" />
    </g>
  </g>
</svg>
